<svg width="1000" height="1000" viewBox="0 0 1000 1000" xmlns="http://www.w3.org/2000/svg"><defs/><path fill="#ffffff" transform="matrix(0.37732792054535125 0 0 0.37732792054535125 11.92666100987434 60.72441918774164)" d="M 681.73399202945 977.7385995827 C 681.73399202945 972.5205995827 677.50699202945 968.2925995827 672.28799202945 968.2925995827 C 667.07099202945 968.2925995827 662.84299202945 972.5205995827 662.84299202945 977.7385995827 L 662.84299202945 1008.6505995827 C 662.84299202945 1013.8685995827 667.07199202945 1018.0955995827 672.28799202945 1018.0955995827 C 677.50799202945 1018.0955995827 681.73399202945 1013.8675995827 681.73399202945 1008.6505995827 L 681.73399202945 977.7385995827 Z"/><path fill="#ffffff" transform="matrix(0.37732792054535125 0 0 0.37732792054535125 11.92666100987434 60.72441918774164)" d="M 456.66799202945 977.7385995827 C 456.66799202945 972.5205995827 452.44199202945 968.2925995827 447.22299202945 968.2925995827 C 442.00599202945 968.2925995827 437.77699202945 972.5205995827 437.77699202945 977.7385995827 L 437.77699202945 1008.6505995827 C 437.77699202945 1013.8685995827 442.00599202945 1018.0955995827 447.22299202945 1018.0955995827 C 452.44199202945 1018.0955995827 456.66799202945 1013.8675995827 456.66799202945 1008.6505995827 L 456.66799202945 977.7385995827 Z"/><path fill="#ffffff" transform="matrix(0.37732792054535125 0 0 0.37732792054535125 11.92666100987434 60.72441918774164)" d="M 466.40899202945 1102.6645995827 L 428.03699202945 1102.6645995827 C 426.64599202945 1102.6645995827 425.51999202945 1103.7915995827 425.51999202945 1105.1815995827 L 425.51999202945 1143.5535995827 C 425.51999202945 1144.9435995827 426.64499202945 1146.0705995827 428.03699202945 1146.0705995827 L 466.40899202945 1146.0705995827 C 467.79699202945 1146.0705995827 468.92499202945 1144.9435995827 468.92499202945 1143.5535995827 L 468.92499202945 1105.1815995827 C 468.92499202945 1103.7915995827 467.79699202945 1102.6645995827 466.40899202945 1102.6645995827 Z"/><path fill="#ffffff" transform="matrix(0.37732792054535125 0 0 0.37732792054535125 11.92666100987434 60.72441918774164)" d="M 653.10199202945 1146.0695995827 L 691.47399202945 1146.0695995827 C 692.86199202945 1146.0695995827 693.98999202945 1144.9425995827 693.98999202945 1143.5525995827 L 693.98999202945 1105.1805995827 C 693.98999202945 1103.7905995827 692.86199202945 1102.6635995827 691.47399202945 1102.6635995827 L 653.10199202945 1102.6635995827 C 651.71099202945 1102.6635995827 650.58599202945 1103.7905995827 650.58599202945 1105.1805995827 L 650.58599202945 1143.5525995827 C 650.58599202945 1144.9425995827 651.71099202945 1146.0695995827 653.10199202945 1146.0695995827 Z"/><path fill="#ffffff" transform="matrix(0.37732792054535125 0 0 0.37732792054535125 11.92666100987434 60.72441918774164)" d="M 578.08099202945 1146.0695995827 L 616.45299202945 1146.0695995827 C 617.84199202945 1146.0695995827 618.96999202945 1144.9425995827 618.96999202945 1143.5525995827 L 618.96999202945 1105.1805995827 C 618.96999202945 1103.7905995827 617.84199202945 1102.6635995827 616.45299202945 1102.6635995827 L 578.08099202945 1102.6635995827 C 576.68999202945 1102.6635995827 575.56399202945 1103.7905995827 575.56399202945 1105.1805995827 L 575.56399202945 1143.5525995827 C 575.56399202945 1144.9425995827 576.68899202945 1146.0695995827 578.08099202945 1146.0695995827 Z"/><path fill="#ffffff" transform="matrix(0.37732792054535125 0 0 0.37732792054535125 11.92666100987434 60.72441918774164)" d="M 541.43099202945 1102.6645995827 L 503.05899202945 1102.6645995827 C 501.66799202945 1102.6645995827 500.54199202945 1103.7915995827 500.54199202945 1105.1815995827 L 500.54199202945 1143.5535995827 C 500.54199202945 1144.9435995827 501.66699202945 1146.0705995827 503.05899202945 1146.0705995827 L 541.43099202945 1146.0705995827 C 542.81899202945 1146.0705995827 543.94699202945 1144.9435995827 543.94699202945 1143.5535995827 L 543.94699202945 1105.1815995827 C 543.94699202945 1103.7915995827 542.81899202945 1102.6645995827 541.43099202945 1102.6645995827 Z"/><path fill="#ffffff" transform="matrix(0.37732792054535125 0 0 0.37732792054535125 11.92666100987434 60.72441918774164)" d="M 466.40899202945 1164.9405995827 L 428.03699202945 1164.9405995827 C 426.64599202945 1164.9405995827 425.51999202945 1166.0675995827 425.51999202945 1167.4575995827 L 425.51999202945 1205.8295995827 C 425.51999202945 1207.2195995827 426.64499202945 1208.3455995827 428.03699202945 1208.3455995827 L 466.40899202945 1208.3455995827 C 467.79699202945 1208.3455995827 468.92499202945 1207.2195995827 468.92499202945 1205.8295995827 L 468.92499202945 1167.4575995827 C 468.92499202945 1166.0675995827 467.79699202945 1164.9405995827 466.40899202945 1164.9405995827 Z"/><path fill="#ffffff" transform="matrix(0.37732792054535125 0 0 0.37732792054535125 11.92666100987434 60.72441918774164)" d="M 653.10199202945 1208.3455995827 L 691.47399202945 1208.3455995827 C 692.86199202945 1208.3455995827 693.98999202945 1207.2195995827 693.98999202945 1205.8295995827 L 693.98999202945 1167.4575995827 C 693.98999202945 1166.0675995827 692.86199202945 1164.9405995827 691.47399202945 1164.9405995827 L 653.10199202945 1164.9405995827 C 651.71099202945 1164.9405995827 650.58599202945 1166.0675995827 650.58599202945 1167.4575995827 L 650.58599202945 1205.8295995827 C 650.58599202945 1207.2195995827 651.71099202945 1208.3455995827 653.10199202945 1208.3455995827 Z"/><path fill="#ffffff" transform="matrix(0.37732792054535125 0 0 0.37732792054535125 11.92666100987434 60.72441918774164)" d="M 618.96899202945 1205.8295995827 L 618.96899202945 1167.4575995827 C 618.96899202945 1166.0675995827 617.84099202945 1164.9405995827 616.45199202945 1164.9405995827 L 578.07999202945 1164.9405995827 C 576.68899202945 1164.9405995827 575.56299202945 1166.0675995827 575.56299202945 1167.4575995827 L 575.56299202945 1195.9535995827 L 585.75799202945 1208.3455995827 L 616.45099202945 1208.3455995827 C 617.84099202945 1208.3455995827 618.96899202945 1207.2195995827 618.96899202945 1205.8295995827 Z"/><path fill="#ffffff" transform="matrix(0.37732792054535125 0 0 0.37732792054535125 11.92666100987434 60.72441918774164)" d="M 541.43099202945 1164.9405995827 L 503.05899202945 1164.9405995827 C 501.66799202945 1164.9405995827 500.54199202945 1166.0675995827 500.54199202945 1167.4575995827 L 500.54199202945 1205.8295995827 C 500.54199202945 1207.2195995827 501.66699202945 1208.3455995827 503.05899202945 1208.3455995827 L 541.43099202945 1208.3455995827 C 542.81899202945 1208.3455995827 543.94699202945 1207.2195995827 543.94699202945 1205.8295995827 L 543.94699202945 1167.4575995827 C 543.94699202945 1166.0675995827 542.81899202945 1164.9405995827 541.43099202945 1164.9405995827 Z"/><path fill="#ffffff" transform="matrix(0.37732792054535125 0 0 0.37732792054535125 11.92666100987434 60.72441918774164)" d="M 466.40899202945 1227.2175995827 L 428.03699202945 1227.2175995827 C 426.64599202945 1227.2175995827 425.51999202945 1228.3445995827 425.51999202945 1229.7345995827 L 425.51999202945 1268.1065995827 C 425.51999202945 1269.4965995827 426.64499202945 1270.6225995827 428.03699202945 1270.6225995827 L 466.40899202945 1270.6225995827 C 467.79699202945 1270.6225995827 468.92499202945 1269.4965995827 468.92499202945 1268.1065995827 L 468.92499202945 1229.7345995827 C 468.92499202945 1228.3445995827 467.79699202945 1227.2175995827 466.40899202945 1227.2175995827 Z"/><path fill="#ffffff" transform="matrix(0.37732792054535125 0 0 0.37732792054535125 11.92666100987434 60.72441918774164)" d="M 653.10199202945 1227.2175995827 C 651.71099202945 1227.2175995827 650.58599202945 1228.3445995827 650.58599202945 1229.7345995827 L 650.58599202945 1261.0195995827 C 658.27799202945 1251.3235995827 668.11999202945 1239.7165995827 680.02099202945 1227.2175995827 L 653.10199202945 1227.2175995827 Z"/><path fill="#ffffff" transform="matrix(0.37732792054535125 0 0 0.37732792054535125 11.92666100987434 60.72441918774164)" d="M 618.96899202945 1229.7335995827 C 618.96899202945 1228.3435995827 617.84099202945 1227.2165995827 616.45199202945 1227.2165995827 L 601.28299202945 1227.2165995827 L 618.96899202945 1248.7135995827 L 618.96899202945 1229.7335995827 Z"/><path fill="#ffffff" transform="matrix(0.37732792054535125 0 0 0.37732792054535125 11.92666100987434 60.72441918774164)" d="M 541.43099202945 1227.2175995827 L 503.05899202945 1227.2175995827 C 501.66799202945 1227.2175995827 500.54199202945 1228.3445995827 500.54199202945 1229.7345995827 L 500.54199202945 1268.1065995827 C 500.54199202945 1269.4965995827 501.66699202945 1270.6225995827 503.05899202945 1270.6225995827 L 541.43099202945 1270.6225995827 C 542.81899202945 1270.6225995827 543.94699202945 1269.4965995827 543.94699202945 1268.1065995827 L 543.94699202945 1229.7345995827 C 543.94699202945 1228.3445995827 542.81899202945 1227.2175995827 541.43099202945 1227.2175995827 Z"/><path fill="#ffffff" transform="matrix(0.37732792054535125 0 0 0.37732792054535125 11.92666100987434 60.72441918774164)" d="M 730.93999202945 1292.8305995827 C 730.93999202945 1296.3055995827 728.12399202945 1299.1205995827 724.64899202945 1299.1205995827 L 699.57299202945 1299.1205995827 C 694.73199202945 1306.4675995827 690.00999202945 1314.0265995827 685.45699202945 1321.7665995827 L 724.64899202945 1321.7665995827 C 740.60599202945 1321.7665995827 753.58599202945 1308.7865995827 753.58599202945 1292.8295995827 L 753.58599202945 1228.7195995827 C 746.24899202945 1237.0905995827 738.62599202945 1246.1675995827 730.93999202945 1255.8755995827 L 730.93999202945 1292.8305995827 Z"/><path fill="#ffffff" transform="matrix(0.37732792054535125 0 0 0.37732792054535125 11.92666100987434 60.72441918774164)" d="M 394.86099202945 1299.1205995827 C 391.38599202945 1299.1205995827 388.56999202945 1296.3055995827 388.56999202945 1292.8305995827 L 388.56999202945 1069.3195995827 L 730.93999202945 1069.3195995827 L 730.93999202945 1180.8785995827 C 738.08299202945 1175.2805995827 745.63599202945 1169.7105995827 753.58599202945 1164.2745995827 L 753.58599202945 1074.9715995827 L 753.58599202945 1066.1645995827 L 753.58599202945 1022.1305995827 C 753.58599202945 1006.1745995827 740.60699202945 993.1935995827 724.64899202945 993.1935995827 L 688.49399202945 993.1935995827 L 688.49399202945 1008.6495995827 C 688.49399202945 1017.5855995827 681.22499202945 1024.8555995827 672.28799202945 1024.8555995827 C 663.35299202945 1024.8555995827 656.08299202945 1017.5855995827 656.08299202945 1008.6495995827 L 656.08299202945 993.1935995827 L 463.42799202945 993.1935995827 L 463.42799202945 1008.6495995827 C 463.42799202945 1017.5855995827 456.15799202945 1024.8555995827 447.22199202945 1024.8555995827 C 438.28599202945 1024.8555995827 431.01599202945 1017.5855995827 431.01599202945 1008.6495995827 L 431.01599202945 993.1935995827 L 394.86099202945 993.1935995827 C 378.90599202945 993.1935995827 365.92399202945 1006.1735995827 365.92399202945 1022.1305995827 L 365.92399202945 1066.1645995827 L 365.92399202945 1074.9715995827 L 365.92399202945 1292.8305995827 C 365.92399202945 1308.7865995827 378.90499202945 1321.7675995827 394.86099202945 1321.7675995827 L 592.79899202945 1321.7675995827 C 588.75899202945 1314.5835995827 584.47499202945 1306.9315995827 580.13199202945 1299.1215995827 L 394.86099202945 1299.1215995827 Z"/><path fill="#ffffff" transform="matrix(0.37732792054535125 0 0 0.37732792054535125 11.92666100987434 60.72441918774164)" d="M 641.10699202945 1295.4295995827 L 576.06199202945 1216.3615995827 L 561.73999202945 1238.9935995827 C 586.23599202945 1285.6125995827 628.99199202945 1360.0565995827 628.99199202945 1360.0565995827 L 657.41499202945 1347.3375995827 C 716.16999202945 1226.7135995827 828.99099202945 1137.7845995827 828.99099202945 1137.7845995827 C 710.20099202945 1185.3715995827 641.10699202945 1295.4295995827 641.10699202945 1295.4295995827 Z"/><path id="text" fill="#ffffff" transform="matrix(1.1206900129224966 0 0 1.1206900129224966 225.8710839120339 76.81575918599115)" d="M 120.21085503684 409.62643279974 L 120.21085503684 407.61043279974 C 123.66685503684 407.61043279974 125.68285503684 406.97043279974 126.25885503684 405.69043279974 L 126.25885503684 357.40243279974 C 125.68285503684 356.12243279974 123.66685503684 355.48243279974 120.21085503684 355.48243279974 L 120.21085503684 353.46643279974 L 145.74685503684 353.46643279974 C 153.61885503684 353.46643279974 159.61885503684 354.97043279974 163.74685503684 357.97843279974 C 167.87485503684 360.98643279974 169.93885503684 364.34643279974 169.93885503684 368.05843279974 C 169.93885503684 372.85843279974 168.01885503684 376.73043279974 164.17885503684 379.67443279974 C 160.33885503684 382.61843279974 154.57885503684 384.09043279974 146.89885503684 384.09043279974 L 138.45085503684 384.09043279974 L 138.45085503684 405.69043279974 C 139.02685503684 406.97043279974 141.04285503684 407.61043279974 144.49885503684 407.61043279974 L 144.49885503684 409.62643279974 L 120.21085503684 409.62643279974 Z M 138.45085503684 356.73043279974 L 138.45085503684 380.82643279974 L 143.53885503684 380.82643279974 C 148.46685503684 380.82643279974 151.93885503684 379.85043279974 153.95485503684 377.89843279974 C 155.97085503684 375.94643279974 156.97885503684 372.69843279974 156.97885503684 368.15443279974 C 156.97885503684 360.53843279974 152.11485503684 356.73043279974 142.38685503684 356.73043279974 L 138.45085503684 356.73043279974 Z M 171.85885503684 409.62643279974 L 171.85885503684 407.61043279974 C 175.31485503684 407.61043279974 177.33085503684 406.97043279974 177.90685503684 405.69043279974 L 177.90685503684 355.86643279974 C 174.45085503684 355.61043279974 172.43485503684 355.48243279974 171.85885503684 355.48243279974 L 171.85885503684 353.27443279974 C 173.07485503684 353.27443279974 176.01885503684 352.58643279974 180.69085503684 351.21043279974 C 185.36285503684 349.83443279974 188.43485503684 349.14643279974 189.90685503684 349.14643279974 L 189.90685503684 405.69043279974 C 190.48285503684 406.97043279974 192.49885503684 407.61043279974 195.95485503684 407.61043279974 L 195.95485503684 409.62643279974 L 171.85885503684 409.62643279974 Z M 209.77885503684 374.49043279974 C 211.25085503684 374.49043279974 211.98685503684 375.80243279974 211.98685503684 378.42643279974 C 211.98685503684 379.51443279974 211.44285503684 380.34643279974 210.35485503684 380.92243279974 C 209.26685503684 381.49843279974 208.11485503684 381.78643279974 206.89885503684 381.78643279974 C 205.61885503684 381.78643279974 204.48285503684 381.33843279974 203.49085503684 380.44243279974 C 202.49885503684 379.54643279974 202.00285503684 378.39443279974 202.00285503684 376.98643279974 C 202.00285503684 373.72243279974 203.61885503684 371.14643279974 206.85085503684 369.25843279974 C 210.08285503684 367.37043279974 214.29085503684 366.42643279974 219.47485503684 366.42643279974 C 225.55485503684 366.42643279974 230.29085503684 367.94643279974 233.68285503684 370.98643279974 C 237.07485503684 374.02643279974 238.77085503684 377.88243279974 238.77085503684 382.55443279974 L 238.77085503684 401.56243279974 C 238.77085503684 403.61043279974 239.10685503684 405.11443279974 239.77885503684 406.07443279974 C 240.45085503684 407.03443279974 241.26685503684 407.51443279974 242.22685503684 407.51443279974 C 243.05885503684 407.51443279974 243.81085503684 407.29043279974 244.48285503684 406.84243279974 C 245.15485503684 406.39443279974 245.49085503684 405.85043279974 245.49085503684 405.21043279974 L 247.21885503684 405.21043279974 C 247.21885503684 408.66643279974 243.69885503684 410.39443279974 236.65885503684 410.39443279974 C 233.39485503684 410.39443279974 230.86685503684 409.24243279974 229.07485503684 406.93843279974 C 225.23485503684 409.37043279974 220.78685503684 410.58643279974 215.73085503684 410.58643279974 C 205.04285503684 410.58643279974 199.69885503684 406.68243279974 199.69885503684 398.87443279974 C 199.69885503684 397.27443279974 200.25885503684 395.83443279974 201.37885503684 394.55443279974 C 202.49885503684 393.27443279974 204.21085503684 392.18643279974 206.51485503684 391.29043279974 C 208.81885503684 390.39443279974 210.88285503684 389.69043279974 212.70685503684 389.17843279974 C 214.53085503684 388.66643279974 217.04285503684 388.07443279974 220.24285503684 387.40243279974 C 223.44285503684 386.73043279974 225.61885503684 386.23443279974 226.77085503684 385.91443279974 C 226.77085503684 379.89843279974 226.27485503684 375.72243279974 225.28285503684 373.38643279974 C 224.29085503684 371.05043279974 222.03485503684 369.88243279974 218.51485503684 369.88243279974 C 216.40285503684 369.88243279974 214.49885503684 370.31443279974 212.80285503684 371.17843279974 C 211.10685503684 372.04243279974 210.09885503684 373.14643279974 209.77885503684 374.49043279974 Z M 227.73085503684 404.63443279974 C 227.09085503684 402.90643279974 226.77085503684 400.98643279974 226.77085503684 398.87443279974 L 226.77085503684 388.02643279974 C 221.33085503684 389.69043279974 217.74685503684 391.06643279974 216.01885503684 392.15443279974 C 213.33085503684 393.94643279974 211.98685503684 396.25043279974 211.98685503684 399.06643279974 C 211.98685503684 402.01043279974 212.61085503684 404.12243279974 213.85885503684 405.40243279974 C 215.10685503684 406.68243279974 216.53085503684 407.32243279974 218.13085503684 407.32243279974 C 220.94685503684 407.32243279974 224.14685503684 406.42643279974 227.73085503684 404.63443279974 Z M 247.89085503684 409.62643279974 L 247.89085503684 407.61043279974 C 251.34685503684 407.61043279974 253.36285503684 406.97043279974 253.93885503684 405.69043279974 L 253.93885503684 373.14643279974 C 250.48285503684 372.89043279974 248.46685503684 372.76243279974 247.89085503684 372.76243279974 L 247.89085503684 370.55443279974 C 249.10685503684 370.55443279974 252.05085503684 369.86643279974 256.72285503684 368.49043279974 C 261.39485503684 367.11443279974 264.46685503684 366.42643279974 265.93885503684 366.42643279974 L 265.93885503684 370.45843279974 C 269.13885503684 367.77043279974 272.65885503684 366.42643279974 276.49885503684 366.42643279974 C 282.64285503684 366.42643279974 287.41085503684 367.56243279974 290.80285503684 369.83443279974 C 294.19485503684 372.10643279974 295.89085503684 375.51443279974 295.89085503684 380.05843279974 L 295.89085503684 405.69043279974 C 296.46685503684 406.97043279974 298.48285503684 407.61043279974 301.93885503684 407.61043279974 L 301.93885503684 409.62643279974 L 277.84285503684 409.62643279974 L 277.84285503684 407.61043279974 C 281.29885503684 407.61043279974 283.31485503684 406.97043279974 283.89085503684 405.69043279974 L 283.89085503684 379.38643279974 C 283.89085503684 376.50643279974 283.23485503684 374.17043279974 281.92285503684 372.37843279974 C 280.61085503684 370.58643279974 278.61085503684 369.69043279974 275.92285503684 369.69043279974 C 271.95485503684 369.69043279974 268.62685503684 370.97043279974 265.93885503684 373.53043279974 L 265.93885503684 405.69043279974 C 266.51485503684 406.97043279974 268.53085503684 407.61043279974 271.98685503684 407.61043279974 L 271.98685503684 409.62643279974 L 247.89085503684 409.62643279974 Z M 305.20285503684 409.62643279974 L 305.20285503684 407.61043279974 C 308.65885503684 407.61043279974 310.67485503684 406.97043279974 311.25085503684 405.69043279974 L 311.25085503684 373.14643279974 C 307.92285503684 372.89043279974 305.90685503684 372.76243279974 305.20285503684 372.76243279974 L 305.20285503684 370.55443279974 C 306.41885503684 370.55443279974 309.36285503684 369.86643279974 314.03485503684 368.49043279974 C 318.70685503684 367.11443279974 321.77885503684 366.42643279974 323.25085503684 366.42643279974 L 323.25085503684 405.69043279974 C 323.82685503684 406.97043279974 325.84285503684 407.61043279974 329.29885503684 407.61043279974 L 329.29885503684 409.62643279974 L 305.20285503684 409.62643279974 Z M 317.01085503684 360.28243279974 C 315.47485503684 360.28243279974 313.92285503684 359.72243279974 312.35485503684 358.60243279974 C 310.78685503684 357.48243279974 310.00285503684 356.15443279974 310.00285503684 354.61843279974 C 310.00285503684 353.27443279974 310.72285503684 352.02643279974 312.16285503684 350.87443279974 C 313.60285503684 349.72243279974 315.12285503684 349.14643279974 316.72285503684 349.14643279974 C 318.25885503684 349.14643279974 319.81085503684 349.70643279974 321.37885503684 350.82643279974 C 322.94685503684 351.94643279974 323.73085503684 353.30643279974 323.73085503684 354.90643279974 C 323.73085503684 356.25043279974 323.01085503684 357.48243279974 321.57085503684 358.60243279974 C 320.13085503684 359.72243279974 318.61085503684 360.28243279974 317.01085503684 360.28243279974 Z M 364.72285503684 354.81043279974 C 364.72285503684 357.69043279974 363.44285503684 359.13043279974 360.88285503684 359.13043279974 C 359.34685503684 359.13043279974 358.25885503684 358.76243279974 357.61885503684 358.02643279974 C 356.97885503684 357.29043279974 356.67485503684 356.47443279974 356.70685503684 355.57843279974 C 356.73885503684 354.68243279974 356.57885503684 353.86643279974 356.22685503684 353.13043279974 C 355.87485503684 352.39443279974 355.18685503684 352.02643279974 354.16285503684 352.02643279974 C 351.85885503684 352.02643279974 350.70685503684 355.61043279974 350.70685503684 362.77843279974 L 350.70685503684 367.38643279974 L 358.09885503684 367.38643279974 L 358.09885503684 370.26643279974 L 350.70685503684 370.26643279974 L 350.70685503684 405.69043279974 C 351.28285503684 406.97043279974 353.29885503684 407.61043279974 356.75485503684 407.61043279974 L 356.75485503684 409.62643279974 L 332.65885503684 409.62643279974 L 332.65885503684 407.61043279974 C 336.11485503684 407.61043279974 338.13085503684 406.97043279974 338.70685503684 405.69043279974 L 338.70685503684 370.26643279974 L 333.90685503684 370.26643279974 L 333.90685503684 367.38643279974 L 338.70685503684 367.38643279974 L 338.70685503684 364.12243279974 C 338.70685503684 358.87443279974 340.03485503684 355.06643279974 342.69085503684 352.69843279974 C 345.34685503684 350.33043279974 348.85085503684 349.14643279974 353.20285503684 349.14643279974 C 356.97885503684 349.14643279974 359.84285503684 349.72243279974 361.79485503684 350.87443279974 C 363.74685503684 352.02643279974 364.72285503684 353.33843279974 364.72285503684 354.81043279974 Z M 374.99485503684 344.63443279974 L 387.09085503684 344.63443279974 L 374.22685503684 360.18643279974 L 369.81085503684 360.18643279974 L 374.99485503684 344.63443279974 Z M 361.84285503684 409.62643279974 L 361.84285503684 407.61043279974 C 365.29885503684 407.61043279974 367.31485503684 406.97043279974 367.89085503684 405.69043279974 L 367.89085503684 373.14643279974 C 364.56285503684 372.89043279974 362.54685503684 372.76243279974 361.84285503684 372.76243279974 L 361.84285503684 370.55443279974 C 363.05885503684 370.55443279974 366.00285503684 369.86643279974 370.67485503684 368.49043279974 C 375.34685503684 367.11443279974 378.41885503684 366.42643279974 379.89085503684 366.42643279974 L 379.89085503684 405.69043279974 C 380.46685503684 406.97043279974 382.48285503684 407.61043279974 385.93885503684 407.61043279974 L 385.93885503684 409.62643279974 L 361.84285503684 409.62643279974 Z M 413.10685503684 369.30643279974 C 410.09885503684 369.30643279974 407.53885503684 370.82643279974 405.42685503684 373.86643279974 C 403.31485503684 376.90643279974 402.25885503684 380.95443279974 402.25885503684 386.01043279974 C 402.25885503684 391.70643279974 403.41085503684 396.61843279974 405.71485503684 400.74643279974 C 408.01885503684 404.87443279974 411.02685503684 406.93843279974 414.73885503684 406.93843279974 C 420.11485503684 406.93843279974 424.17885503684 404.63443279974 426.93085503684 400.02643279974 L 430.48285503684 401.75443279974 C 428.62685503684 404.82643279974 426.21085503684 407.06643279974 423.23485503684 408.47443279974 C 420.25885503684 409.88243279974 416.33885503684 410.58643279974 411.47485503684 410.58643279974 C 409.55485503684 410.58643279974 407.66685503684 410.37843279974 405.81085503684 409.96243279974 C 403.95485503684 409.54643279974 402.03485503684 408.76243279974 400.05085503684 407.61043279974 C 398.06685503684 406.45843279974 396.33885503684 405.01843279974 394.86685503684 403.29043279974 C 393.39485503684 401.56243279974 392.17885503684 399.24243279974 391.21885503684 396.33043279974 C 390.25885503684 393.41843279974 389.77885503684 390.10643279974 389.77885503684 386.39443279974 C 389.77885503684 380.89043279974 391.89085503684 376.18643279974 396.11485503684 372.28243279974 C 400.33885503684 368.37843279974 405.68285503684 366.42643279974 412.14685503684 366.42643279974 C 417.33085503684 366.42643279974 421.50685503684 367.30643279974 424.67485503684 369.06643279974 C 427.84285503684 370.82643279974 429.42685503684 373.33843279974 429.42685503684 376.60243279974 C 429.42685503684 378.20243279974 429.02685503684 379.51443279974 428.22685503684 380.53843279974 C 427.42685503684 381.56243279974 426.22685503684 382.07443279974 424.62685503684 382.07443279974 C 423.09085503684 382.07443279974 421.85885503684 381.70643279974 420.93085503684 380.97043279974 C 420.00285503684 380.23443279974 419.53885503684 379.25843279974 419.53885503684 378.04243279974 C 419.53885503684 376.69843279974 419.87485503684 375.70643279974 420.54685503684 375.06643279974 C 421.21885503684 374.42643279974 422.00285503684 374.10643279974 422.89885503684 374.10643279974 C 422.06685503684 370.90643279974 418.80285503684 369.30643279974 413.10685503684 369.30643279974 Z M 445.45885503684 374.49043279974 C 446.93085503684 374.49043279974 447.66685503684 375.80243279974 447.66685503684 378.42643279974 C 447.66685503684 379.51443279974 447.12285503684 380.34643279974 446.03485503684 380.92243279974 C 444.94685503684 381.49843279974 443.79485503684 381.78643279974 442.57885503684 381.78643279974 C 441.29885503684 381.78643279974 440.16285503684 381.33843279974 439.17085503684 380.44243279974 C 438.17885503684 379.54643279974 437.68285503684 378.39443279974 437.68285503684 376.98643279974 C 437.68285503684 373.72243279974 439.29885503684 371.14643279974 442.53085503684 369.25843279974 C 445.76285503684 367.37043279974 449.97085503684 366.42643279974 455.15485503684 366.42643279974 C 461.23485503684 366.42643279974 465.97085503684 367.94643279974 469.36285503684 370.98643279974 C 472.75485503684 374.02643279974 474.45085503684 377.88243279974 474.45085503684 382.55443279974 L 474.45085503684 401.56243279974 C 474.45085503684 403.61043279974 474.78685503684 405.11443279974 475.45885503684 406.07443279974 C 476.13085503684 407.03443279974 476.94685503684 407.51443279974 477.90685503684 407.51443279974 C 478.73885503684 407.51443279974 479.49085503684 407.29043279974 480.16285503684 406.84243279974 C 480.83485503684 406.39443279974 481.17085503684 405.85043279974 481.17085503684 405.21043279974 L 482.89885503684 405.21043279974 C 482.89885503684 408.66643279974 479.37885503684 410.39443279974 472.33885503684 410.39443279974 C 469.07485503684 410.39443279974 466.54685503684 409.24243279974 464.75485503684 406.93843279974 C 460.91485503684 409.37043279974 456.46685503684 410.58643279974 451.41085503684 410.58643279974 C 440.72285503684 410.58643279974 435.37885503684 406.68243279974 435.37885503684 398.87443279974 C 435.37885503684 397.27443279974 435.93885503684 395.83443279974 437.05885503684 394.55443279974 C 438.17885503684 393.27443279974 439.89085503684 392.18643279974 442.19485503684 391.29043279974 C 444.49885503684 390.39443279974 446.56285503684 389.69043279974 448.38685503684 389.17843279974 C 450.21085503684 388.66643279974 452.72285503684 388.07443279974 455.92285503684 387.40243279974 C 459.12285503684 386.73043279974 461.29885503684 386.23443279974 462.45085503684 385.91443279974 C 462.45085503684 379.89843279974 461.95485503684 375.72243279974 460.96285503684 373.38643279974 C 459.97085503684 371.05043279974 457.71485503684 369.88243279974 454.19485503684 369.88243279974 C 452.08285503684 369.88243279974 450.17885503684 370.31443279974 448.48285503684 371.17843279974 C 446.78685503684 372.04243279974 445.77885503684 373.14643279974 445.45885503684 374.49043279974 Z M 463.41085503684 404.63443279974 C 462.77085503684 402.90643279974 462.45085503684 400.98643279974 462.45085503684 398.87443279974 L 462.45085503684 388.02643279974 C 457.01085503684 389.69043279974 453.42685503684 391.06643279974 451.69885503684 392.15443279974 C 449.01085503684 393.94643279974 447.66685503684 396.25043279974 447.66685503684 399.06643279974 C 447.66685503684 402.01043279974 448.29085503684 404.12243279974 449.53885503684 405.40243279974 C 450.78685503684 406.68243279974 452.21085503684 407.32243279974 453.81085503684 407.32243279974 C 456.62685503684 407.32243279974 459.82685503684 406.42643279974 463.41085503684 404.63443279974 Z M 482.61085503684 409.62643279974 L 482.61085503684 407.61043279974 C 486.06685503684 407.61043279974 488.08285503684 406.97043279974 488.65885503684 405.69043279974 L 488.65885503684 355.86643279974 C 485.20285503684 355.61043279974 483.18685503684 355.48243279974 482.61085503684 355.48243279974 L 482.61085503684 353.27443279974 C 483.82685503684 353.27443279974 486.77085503684 352.58643279974 491.44285503684 351.21043279974 C 496.11485503684 349.83443279974 499.18685503684 349.14643279974 500.65885503684 349.14643279974 L 500.65885503684 405.69043279974 C 501.23485503684 406.97043279974 503.25085503684 407.61043279974 506.70685503684 407.61043279974 L 506.70685503684 409.62643279974 L 482.61085503684 409.62643279974 Z M 523.12285503684 385.81843279974 C 523.12285503684 393.37043279974 524.13085503684 398.90643279974 526.14685503684 402.42643279974 C 528.16285503684 405.94643279974 531.25085503684 407.70643279974 535.41085503684 407.70643279974 C 538.29085503684 407.70643279974 540.49885503684 406.18643279974 542.03485503684 403.14643279974 C 543.57085503684 400.10643279974 544.33885503684 396.09043279974 544.33885503684 391.09843279974 C 544.33885503684 383.29043279974 543.42685503684 377.72243279974 541.60285503684 374.39443279974 C 539.77885503684 371.06643279974 536.53085503684 369.40243279974 531.85885503684 369.40243279974 C 529.10685503684 369.40243279974 526.96285503684 371.00243279974 525.42685503684 374.20243279974 C 523.89085503684 377.40243279974 523.12285503684 381.27443279974 523.12285503684 385.81843279974 Z M 534.16285503684 410.58643279974 C 526.93085503684 410.58643279974 521.18685503684 408.47443279974 516.93085503684 404.25043279974 C 512.67485503684 400.02643279974 510.54685503684 394.52243279974 510.54685503684 387.73843279974 C 510.54685503684 381.65843279974 512.48285503684 376.58643279974 516.35485503684 372.52243279974 C 520.22685503684 368.45843279974 525.93885503684 366.42643279974 533.49085503684 366.42643279974 C 541.10685503684 366.42643279974 546.91485503684 368.44243279974 550.91485503684 372.47443279974 C 554.91485503684 376.50643279974 556.91485503684 381.97843279974 556.91485503684 388.89043279974 C 556.91485503684 395.03443279974 554.99485503684 400.18643279974 551.15485503684 404.34643279974 C 547.31485503684 408.50643279974 541.65085503684 410.58643279974 534.16285503684 410.58643279974 Z"/></svg>